<svg width="198" height="100" viewBox="0 0 198 100" fill="none" xmlns="http://www.w3.org/2000/svg">
<path d="M50 0C66.9667 0 81.9566 8.45292 90.9961 21.375C84.3836 23.4529 78.7588 27.7591 75 33.4131C69.6255 25.3288 60.4355 20 50 20C33.4315 20 20 33.4315 20 50C20 66.5685 33.4315 80 50 80C60.4358 80 69.6256 74.6706 75 66.5859C78.7588 72.2402 84.3834 76.546 90.9961 78.624C81.9567 91.5465 66.967 100 50 100C22.3858 100 0 77.6142 0 50C0 22.3858 22.3858 0 50 0Z" fill="black"/>
<path d="M100 0C116.967 0 131.957 8.45292 140.996 21.375C134.384 23.4529 128.759 27.7591 125 33.4131C119.626 25.3288 110.435 20 100 20C83.4315 20 70 33.4315 70 50C70 66.5685 83.4315 80 100 80C110.436 80 119.626 74.6706 125 66.5859C128.759 72.2402 134.383 76.546 140.996 78.624C131.957 91.5465 116.967 100 100 100C72.3858 100 50 77.6142 50 50C50 22.3858 72.3858 0 100 0Z" fill="black"/>
<path d="M150 0C172.388 0 191.339 14.7146 197.71 35H175.985C170.798 26.0333 161.104 20 150 20C133.431 20 120 33.4315 120 50C120 66.5685 133.431 80 150 80C161.104 80 170.798 73.9667 175.985 65H197.71C191.339 85.2854 172.388 100 150 100C122.386 100 100 77.6142 100 50C100 22.3858 122.386 0 150 0Z" fill="black"/>
<line x1="154" y1="60" x2="198" y2="60" stroke="black" stroke-width="20"/>
<line x1="188" y1="50" x2="188" y2="94" stroke="black" stroke-width="20"/>
</svg>
